# xmcd
#
# Track frame offsets: 
#        150
#        12307
#        24452
#        40727
#        56710
#        79503
#        101133
#        115506
#
# Disc length: 1743 seconds
#
# Revision: 2
# Processed by: cddbd v1.5.2PL0 Copyright (c) Steve Scherf et al.
# Submitted via: ExactAudioCopyFreeDBPlugin 1.0
#
DISCID=5706cd08
DTITLE=Nathaniel Rateliff - A Little Something More From Nathaniel Rat
DTITLE=eliff and The Night Sweats 
DYEAR=2015
DGENRE=Rhythm and Blues
TTITLE0=Parlor
TTITLE1=I Did It
TTITLE2=Out on the Weekend (Version 2)
TTITLE3=Wasting Time (recorded live at the Stax Museum of American Sou
TTITLE3=l Music)
TTITLE4=What I Need
TTITLE5=Just to Talk to You
TTITLE6=How to Make Friends
TTITLE7=Late Night Party (Out on the Weekend Version 1)
EXTD=YEAR: 2015
EXTT0=
EXTT1=
EXTT2=
EXTT3=
EXTT4=
EXTT5=
EXTT6=
EXTT7=
PLAYORDER=
